<svg width="24" height="24" viewBox="0 0 24 24" fill="none" xmlns="http://www.w3.org/2000/svg">
<path d="M20.25 6.9375H12.1875L9.53719 4.95C9.31 4.77961 9.03367 4.6875 8.74969 4.6875H3.75C3.4019 4.6875 3.06806 4.82578 2.82192 5.07192C2.57578 5.31806 2.4375 5.6519 2.4375 6V18.75C2.4375 19.0981 2.57578 19.4319 2.82192 19.6781C3.06806 19.9242 3.4019 20.0625 3.75 20.0625H20.3334C20.6593 20.0623 20.9718 19.9327 21.2022 19.7022C21.4327 19.4718 21.5623 19.1593 21.5625 18.8334V8.25C21.5625 7.9019 21.4242 7.56806 21.1781 7.32192C20.9319 7.07578 20.5981 6.9375 20.25 6.9375ZM20.4375 18.8334C20.4375 18.861 20.4265 18.8875 20.407 18.907C20.3875 18.9265 20.361 18.9375 20.3334 18.9375H3.75C3.70027 18.9375 3.65258 18.9177 3.61742 18.8826C3.58225 18.8474 3.5625 18.7997 3.5625 18.75V6C3.5625 5.95027 3.58225 5.90258 3.61742 5.86742C3.65258 5.83225 3.70027 5.8125 3.75 5.8125H8.74969C8.79026 5.8125 8.82973 5.82566 8.86219 5.85L11.6625 7.95C11.7599 8.02303 11.8783 8.0625 12 8.0625H20.25C20.2997 8.0625 20.3474 8.08225 20.3826 8.11742C20.4177 8.15258 20.4375 8.20027 20.4375 8.25V18.8334ZM14.8125 13.5C14.8125 13.6492 14.7532 13.7923 14.6477 13.8977C14.5423 14.0032 14.3992 14.0625 14.25 14.0625H12.5625V15.75C12.5625 15.8992 12.5032 16.0423 12.3977 16.1477C12.2923 16.2532 12.1492 16.3125 12 16.3125C11.8508 16.3125 11.7077 16.2532 11.6023 16.1477C11.4968 16.0423 11.4375 15.8992 11.4375 15.75V14.0625H9.75C9.60082 14.0625 9.45774 14.0032 9.35225 13.8977C9.24676 13.7923 9.1875 13.6492 9.1875 13.5C9.1875 13.3508 9.24676 13.2077 9.35225 13.1023C9.45774 12.9968 9.60082 12.9375 9.75 12.9375H11.4375V11.25C11.4375 11.1008 11.4968 10.9577 11.6023 10.8523C11.7077 10.7468 11.8508 10.6875 12 10.6875C12.1492 10.6875 12.2923 10.7468 12.3977 10.8523C12.5032 10.9577 12.5625 11.1008 12.5625 11.25V12.9375H14.25C14.3992 12.9375 14.5423 12.9968 14.6477 13.1023C14.7532 13.2077 14.8125 13.3508 14.8125 13.5Z" fill="black"/>
</svg>
