<svg width="24" height="24" viewBox="0 0 24 24" fill="none" xmlns="http://www.w3.org/2000/svg">
<path d="M15.397 19.1026C15.4523 19.1541 15.4966 19.2162 15.5273 19.2852C15.5581 19.3542 15.5746 19.4287 15.5759 19.5042C15.5773 19.5798 15.5634 19.6548 15.5351 19.7248C15.5068 19.7949 15.4647 19.8585 15.4113 19.9119C15.3579 19.9653 15.2942 20.0074 15.2242 20.0357C15.1542 20.064 15.0791 20.0779 15.0036 20.0766C14.9281 20.0752 14.8536 20.0587 14.7846 20.028C14.7156 19.9972 14.6535 19.9529 14.602 19.8976L7.10201 12.3976C6.99667 12.2922 6.9375 12.1492 6.9375 12.0001C6.9375 11.8511 6.99667 11.7081 7.10201 11.6026L14.602 4.10263C14.7086 4.00327 14.8497 3.94918 14.9954 3.95175C15.1411 3.95432 15.2802 4.01335 15.3832 4.11641C15.4863 4.21947 15.5453 4.35851 15.5479 4.50424C15.5505 4.64996 15.4964 4.791 15.397 4.89763L8.29544 12.0001L15.397 19.1026Z" fill="black"/>
</svg>
