<svg width="24" height="24" viewBox="0 0 24 24" fill="none" xmlns="http://www.w3.org/2000/svg">
<path d="M21.1781 7.01062L16.9884 2.82093C16.8666 2.69904 16.7219 2.60235 16.5626 2.53638C16.4034 2.47042 16.2327 2.43646 16.0603 2.43646C15.8879 2.43646 15.7173 2.47042 15.558 2.53638C15.3988 2.60235 15.2541 2.69904 15.1322 2.82093L3.57188 14.3822C3.44975 14.5039 3.35292 14.6485 3.28695 14.8078C3.22098 14.9671 3.18718 15.1379 3.1875 15.3103V19.5C3.1875 19.8481 3.32578 20.1819 3.57192 20.4281C3.81807 20.6742 4.15191 20.8125 4.5 20.8125H8.68969C8.8621 20.8128 9.03287 20.779 9.19216 20.713C9.35145 20.6471 9.49611 20.5502 9.61781 20.4281L21.1781 8.86687C21.3 8.74499 21.3967 8.6003 21.4627 8.44105C21.5286 8.2818 21.5626 8.11112 21.5626 7.93874C21.5626 7.76637 21.5286 7.59569 21.4627 7.43644C21.3967 7.27719 21.3 7.1325 21.1781 7.01062ZM8.82188 19.6322C8.78688 19.6674 8.73934 19.6873 8.68969 19.6875H4.5C4.45027 19.6875 4.40258 19.6677 4.36742 19.6326C4.33226 19.5974 4.3125 19.5497 4.3125 19.5V15.3103C4.31271 15.2607 4.3326 15.2131 4.36781 15.1781L12.75 6.79499L17.2041 11.25L8.82188 19.6322ZM20.3822 8.07187L18 10.4541L13.5459 5.99999L15.9281 3.61687C15.9455 3.59944 15.9662 3.58561 15.989 3.57617C16.0117 3.56674 16.0361 3.56188 16.0608 3.56188C16.0854 3.56188 16.1098 3.56674 16.1326 3.57617C16.1553 3.58561 16.176 3.59944 16.1934 3.61687L20.3822 7.80656C20.3996 7.82397 20.4135 7.84465 20.4229 7.86741C20.4323 7.89017 20.4372 7.91457 20.4372 7.93921C20.4372 7.96385 20.4323 7.98825 20.4229 8.01101C20.4135 8.03378 20.3996 8.05446 20.3822 8.07187Z" fill="black"/>
</svg>
