<svg width="24" height="24" viewBox="0 0 24 24" fill="none" xmlns="http://www.w3.org/2000/svg">
<path d="M20.25 6.9375H12.2334L9.61781 4.32188C9.49611 4.19975 9.35145 4.10292 9.19216 4.03695C9.03287 3.97098 8.8621 3.93718 8.68969 3.9375H3.75C3.4019 3.9375 3.06806 4.07578 2.82192 4.32192C2.57578 4.56807 2.4375 4.90191 2.4375 5.25V18.8081C2.43775 19.1407 2.56999 19.4596 2.80517 19.6948C3.04036 19.93 3.35927 20.0623 3.69188 20.0625H20.3334C20.6593 20.0623 20.9718 19.9327 21.2022 19.7022C21.4327 19.4718 21.5623 19.1593 21.5625 18.8334V8.25C21.5625 7.90191 21.4242 7.56807 21.1781 7.32192C20.9319 7.07578 20.5981 6.9375 20.25 6.9375ZM3.75 5.0625H8.68969C8.73934 5.06271 8.78687 5.0826 8.82187 5.11781L10.6416 6.9375H3.5625V5.25C3.5625 5.20027 3.58225 5.15258 3.61742 5.11742C3.65258 5.08226 3.70027 5.0625 3.75 5.0625ZM20.4375 18.8334C20.4375 18.861 20.4265 18.8875 20.407 18.907C20.3875 18.9265 20.361 18.9375 20.3334 18.9375H3.69188C3.65771 18.937 3.62509 18.9232 3.60093 18.8991C3.57677 18.8749 3.56298 18.8423 3.5625 18.8081V8.0625H20.25C20.2997 8.0625 20.3474 8.08226 20.3826 8.11742C20.4177 8.15258 20.4375 8.20027 20.4375 8.25V18.8334Z" fill="black"/>
</svg>
